P3
45 35
255
0 250 0 
0 250 0 
0 250 0 
0 250 0 
0 250 0 
0 250 0 
0 250 0 
0 250 0 
0 250 0 
0 250 0 
0 250 0 
0 250 0 
0 250 0 
0 250 0 
0 250 0 
0 250 0 
0 250 0 
0 250 0 
0 250 0 
0 250 0 
0 250 0 
0 250 0 
0 250 0 
0 250 0 
0 250 0 
0 250 0 
0 250 0 
0 250 0 
0 250 0 
0 250 0 
0 250 0 
0 250 0 
0 250 0 
0 250 0 
0 250 0 
0 250 0 
0 250 0 
0 250 0 
0 250 0 
0 250 0 
0 250 0 
0 250 0 
0 250 0 
0 250 0 
0 250 0 
0 250 0 
0 250 0 
0 250 0 
0 250 0 
0 250 0 
0 250 0 
0 250 0 
0 250 0 
0 250 0 
0 250 0 
0 250 0 
0 250 0 
0 250 0 
0 250 0 
0 250 0 
0 250 0 
0 250 0 
0 250 0 
0 250 0 
0 250 0 
0 250 0 
0 250 0 
0 250 0 
0 250 0 
0 250 0 
0 250 0 
0 250 0 
0 250 0 
0 250 0 
0 250 0 
0 250 0 
0 250 0 
0 250 0 
0 250 0 
0 250 0 
0 250 0 
0 250 0 
0 250 0 
0 250 0 
0 250 0 
0 250 0 
0 250 0 
0 250 0 
0 250 0 
0 250 0 
0 250 0 
0 250 0 
0 250 0 
0 250 0 
0 250 0 
0 250 0 
0 250 0 
0 250 0 
0 250 0 
0 250 0 
0 250 0 
0 250 0 
0 250 0 
0 250 0 
0 250 0 
0 250 0 
0 250 0 
0 250 0 
0 250 0 
0 250 0 
0 250 0 
0 250 0 
0 250 0 
0 250 0 
0 250 0 
0 250 0 
0 250 0 
0 250 0 
0 250 0 
0 250 0 
0 250 0 
0 250 0 
0 250 0 
0 250 0 
0 250 0 
0 250 0 
0 250 0 
0 250 0 
0 250 0 
0 250 0 
0 250 0 
0 250 0 
0 250 0 
0 250 0 
0 250 0 
0 250 0 
0 250 0 
0 250 0 
0 250 0 
0 250 0 
0 250 0 
0 250 0 
0 250 0 
0 250 0 
0 250 0 
0 250 0 
0 250 0 
0 250 0 
0 250 0 
0 250 0 
0 250 0 
0 250 0 
0 250 0 
0 250 0 
0 250 0 
0 250 0 
0 250 0 
0 250 0 
0 250 0 
0 250 0 
0 250 0 
0 250 0 
0 250 0 
0 250 0 
0 250 0 
0 250 0 
0 250 0 
0 250 0 
0 250 0 
0 250 0 
0 250 0 
0 250 0 
0 250 0 
0 250 0 
0 250 0 
0 250 0 
0 250 0 
0 250 0 
0 250 0 
0 250 0 
0 250 0 
0 250 0 
0 250 0 
0 250 0 
0 250 0 
0 250 0 
0 250 0 
0 250 0 
0 250 0 
0 250 0 
0 250 0 
0 250 0 
0 250 0 
0 250 0 
0 250 0 
0 250 0 
0 250 0 
0 250 0 
0 250 0 
0 250 0 
0 250 0 
0 250 0 
0 250 0 
0 250 0 
0 250 0 
0 250 0 
0 250 0 
0 250 0 
0 250 0 
0 250 0 
0 250 0 
0 250 0 
0 250 0 
0 250 0 
0 250 0 
0 250 0 
0 250 0 
0 250 0 
0 250 0 
0 250 0 
0 250 0 
0 250 0 
0 250 0 
0 250 0 
0 250 0 
0 250 0 
0 250 0 
0 250 0 
0 250 0 
0 250 0 
0 250 0 
0 250 0 
0 250 0 
0 250 0 
0 250 0 
0 250 0 
0 250 0 
0 250 0 
0 250 0 
0 250 0 
0 250 0 
0 250 0 
0 250 0 
0 250 0 
0 250 0 
0 250 0 
0 250 0 
0 250 0 
0 250 0 
0 250 0 
0 250 0 
0 250 0 
0 250 0 
0 250 0 
0 250 0 
0 250 0 
0 250 0 
0 250 0 
0 250 0 
0 250 0 
0 250 0 
0 250 0 
0 250 0 
0 250 0 
0 250 0 
0 250 0 
0 250 0 
0 250 0 
0 250 0 
0 250 0 
0 250 0 
0 250 0 
0 250 0 
0 250 0 
0 250 0 
0 250 0 
0 250 0 
0 250 0 
0 250 0 
0 250 0 
0 250 0 
0 250 0 
0 250 0 
0 250 0 
0 250 0 
0 250 0 
0 250 0 
0 250 0 
0 250 0 
0 250 0 
0 250 0 
0 250 0 
0 250 0 
0 250 0 
0 250 0 
0 250 0 
0 250 0 
0 250 0 
0 250 0 
0 250 0 
0 250 0 
0 250 0 
0 250 0 
0 250 0 
0 250 0 
0 250 0 
0 250 0 
0 250 0 
0 250 0 
0 250 0 
0 250 0 
0 250 0 
0 250 0 
0 250 0 
0 250 0 
0 250 0 
0 250 0 
0 250 0 
0 250 0 
0 250 0 
0 250 0 
0 250 0 
0 250 0 
0 250 0 
0 250 0 
0 250 0 
0 250 0 
0 250 0 
0 250 0 
0 250 0 
0 250 0 
0 250 0 
0 250 0 
0 250 0 
0 250 0 
0 250 0 
0 250 0 
0 250 0 
0 250 0 
0 250 0 
0 250 0 
0 250 0 
0 250 0 
0 250 0 
0 250 0 
0 250 0 
0 250 0 
0 250 0 
0 250 0 
0 250 0 
0 250 0 
0 250 0 
0 250 0 
0 250 0 
0 250 0 
0 250 0 
0 250 0 
0 250 0 
0 250 0 
0 250 0 
0 250 0 
0 250 0 
0 250 0 
0 250 0 
0 250 0 
0 250 0 
0 250 0 
0 250 0 
0 250 0 
0 250 0 
0 250 0 
0 250 0 
0 250 0 
0 250 0 
0 250 0 
0 250 0 
0 250 0 
0 250 0 
0 250 0 
0 250 0 
0 250 0 
0 250 0 
0 250 0 
0 250 0 
0 250 0 
0 250 0 
0 250 0 
0 250 0 
0 250 0 
0 250 0 
0 250 0 
0 250 0 
0 250 0 
0 250 0 
0 250 0 
0 250 0 
0 250 0 
0 250 0 
0 250 0 
0 250 0 
0 250 0 
0 250 0 
0 250 0 
0 250 0 
0 250 0 
0 250 0 
0 250 0 
0 250 0 
0 250 0 
0 250 0 
0 250 0 
0 250 0 
0 250 0 
0 250 0 
0 250 0 
0 250 0 
0 250 0 
0 250 0 
0 250 0 
0 250 0 
0 250 0 
0 250 0 
0 250 0 
0 250 0 
0 250 0 
0 250 0 
0 250 0 
0 250 0 
0 250 0 
0 250 0 
0 250 0 
0 250 0 
0 250 0 
0 250 0 
0 250 0 
0 250 0 
0 250 0 
0 250 0 
0 250 0 
0 250 0 
0 250 0 
0 250 0 
0 250 0 
0 250 0 
0 250 0 
0 250 0 
0 250 0 
0 250 0 
0 250 0 
0 250 0 
0 250 0 
0 250 0 
0 250 0 
0 250 0 
0 250 0 
0 250 0 
0 250 0 
0 250 0 
0 250 0 
0 250 0 
255 0 0 
255 0 0 
255 0 0 
255 0 0 
255 0 0 
255 0 0 
255 0 0 
255 0 0 
255 0 0 
255 0 0 
0 250 0 
0 250 0 
0 250 0 
0 250 0 
0 250 0 
255 0 0 
255 0 0 
255 0 0 
255 0 0 
255 0 0 
255 0 0 
255 0 0 
255 0 0 
255 0 0 
255 0 0 
0 250 0 
0 250 0 
0 250 0 
0 250 0 
0 250 0 
0 250 0 
0 250 0 
0 250 0 
0 250 0 
0 250 0 
0 250 0 
0 250 0 
0 250 0 
0 250 0 
0 250 0 
0 250 0 
0 250 0 
0 250 0 
0 250 0 
0 250 0 
255 0 0 
255 0 0 
255 0 0 
255 0 0 
255 0 0 
255 0 0 
255 0 0 
255 0 0 
255 0 0 
255 0 0 
0 250 0 
0 250 0 
0 250 0 
0 250 0 
0 250 0 
255 0 0 
255 0 0 
255 0 0 
255 0 0 
255 0 0 
255 0 0 
255 0 0 
255 0 0 
255 0 0 
255 0 0 
0 250 0 
0 250 0 
0 250 0 
0 250 0 
0 250 0 
0 250 0 
0 250 0 
0 250 0 
0 250 0 
0 250 0 
0 250 0 
0 250 0 
0 250 0 
0 250 0 
0 250 0 
0 250 0 
0 250 0 
0 250 0 
0 250 0 
0 250 0 
255 0 0 
255 0 0 
255 0 0 
255 0 0 
255 0 0 
255 0 0 
255 0 0 
255 0 0 
255 0 0 
255 0 0 
0 250 0 
0 250 0 
0 250 0 
0 250 0 
0 250 0 
255 0 0 
255 0 0 
255 0 0 
255 0 0 
255 0 0 
255 0 0 
255 0 0 
255 0 0 
255 0 0 
255 0 0 
0 250 0 
0 250 0 
0 250 0 
0 250 0 
0 250 0 
0 250 0 
0 250 0 
0 250 0 
0 250 0 
0 250 0 
0 250 0 
0 250 0 
0 250 0 
0 250 0 
0 250 0 
0 250 0 
0 250 0 
0 250 0 
0 250 0 
0 250 0 
255 0 0 
255 0 0 
255 0 0 
255 0 0 
255 0 0 
255 0 0 
255 0 0 
255 0 0 
255 0 0 
255 0 0 
0 250 0 
0 250 0 
0 250 0 
0 250 0 
0 250 0 
255 0 0 
255 0 0 
255 0 0 
255 0 0 
255 0 0 
255 0 0 
255 0 0 
255 0 0 
255 0 0 
255 0 0 
0 250 0 
0 250 0 
0 250 0 
0 250 0 
0 250 0 
0 250 0 
0 250 0 
0 250 0 
0 250 0 
0 250 0 
0 250 0 
0 250 0 
0 250 0 
0 250 0 
0 250 0 
0 250 0 
0 250 0 
0 250 0 
0 250 0 
0 250 0 
255 0 0 
255 0 0 
255 0 0 
255 0 0 
255 0 0 
255 0 0 
255 0 0 
255 0 0 
255 0 0 
255 0 0 
0 250 0 
0 250 0 
0 250 0 
0 250 0 
0 250 0 
255 0 0 
255 0 0 
255 0 0 
255 0 0 
255 0 0 
255 0 0 
255 0 0 
255 0 0 
255 0 0 
255 0 0 
0 250 0 
0 250 0 
0 250 0 
0 250 0 
0 250 0 
0 250 0 
0 250 0 
0 250 0 
0 250 0 
0 250 0 
0 250 0 
0 250 0 
0 250 0 
0 250 0 
0 250 0 
0 250 0 
0 250 0 
0 250 0 
0 250 0 
0 250 0 
255 0 0 
255 0 0 
255 0 0 
255 0 0 
255 0 0 
255 0 0 
255 0 0 
255 0 0 
255 0 0 
255 0 0 
0 250 0 
0 250 0 
0 250 0 
0 250 0 
0 250 0 
255 0 0 
255 0 0 
255 0 0 
255 0 0 
255 0 0 
255 0 0 
255 0 0 
255 0 0 
255 0 0 
255 0 0 
0 250 0 
0 250 0 
0 250 0 
0 250 0 
0 250 0 
0 250 0 
0 250 0 
0 250 0 
0 250 0 
0 250 0 
0 250 0 
0 250 0 
0 250 0 
0 250 0 
0 250 0 
0 250 0 
0 250 0 
0 250 0 
0 250 0 
0 250 0 
255 0 0 
255 0 0 
255 0 0 
255 0 0 
255 0 0 
255 0 0 
255 0 0 
255 0 0 
255 0 0 
255 0 0 
0 250 0 
0 250 0 
0 250 0 
0 250 0 
0 250 0 
255 0 0 
255 0 0 
255 0 0 
255 0 0 
255 0 0 
255 0 0 
255 0 0 
255 0 0 
255 0 0 
255 0 0 
0 250 0 
0 250 0 
0 250 0 
0 250 0 
0 250 0 
0 250 0 
0 250 0 
0 250 0 
0 250 0 
0 250 0 
0 250 0 
0 250 0 
0 250 0 
0 250 0 
0 250 0 
0 250 0 
0 250 0 
0 250 0 
0 250 0 
0 250 0 
255 0 0 
255 0 0 
255 0 0 
255 0 0 
255 0 0 
255 0 0 
255 0 0 
255 0 0 
255 0 0 
255 0 0 
0 250 0 
0 250 0 
0 250 0 
0 250 0 
0 250 0 
255 0 0 
255 0 0 
255 0 0 
255 0 0 
255 0 0 
255 0 0 
255 0 0 
255 0 0 
255 0 0 
255 0 0 
0 250 0 
0 250 0 
0 250 0 
0 250 0 
0 250 0 
0 250 0 
0 250 0 
0 250 0 
0 250 0 
0 250 0 
0 250 0 
0 250 0 
0 250 0 
0 250 0 
0 250 0 
0 250 0 
0 250 0 
0 250 0 
0 250 0 
0 250 0 
255 0 0 
255 0 0 
255 0 0 
255 0 0 
255 0 0 
255 0 0 
255 0 0 
255 0 0 
255 0 0 
255 0 0 
0 250 0 
0 250 0 
0 250 0 
0 250 0 
0 250 0 
255 0 0 
255 0 0 
255 0 0 
255 0 0 
255 0 0 
255 0 0 
255 0 0 
255 0 0 
255 0 0 
255 0 0 
0 250 0 
0 250 0 
0 250 0 
0 250 0 
0 250 0 
0 250 0 
0 250 0 
0 250 0 
0 250 0 
0 250 0 
0 250 0 
0 250 0 
0 250 0 
0 250 0 
0 250 0 
0 250 0 
0 250 0 
0 250 0 
0 250 0 
0 250 0 
255 0 0 
255 0 0 
255 0 0 
255 0 0 
255 0 0 
255 0 0 
255 0 0 
255 0 0 
255 0 0 
255 0 0 
0 250 0 
0 250 0 
0 250 0 
0 250 0 
0 250 0 
255 0 0 
255 0 0 
255 0 0 
255 0 0 
255 0 0 
255 0 0 
255 0 0 
255 0 0 
255 0 0 
255 0 0 
0 250 0 
0 250 0 
0 250 0 
0 250 0 
0 250 0 
0 250 0 
0 250 0 
0 250 0 
0 250 0 
0 250 0 
0 250 0 
0 250 0 
0 250 0 
0 250 0 
0 250 0 
0 250 0 
0 250 0 
0 250 0 
0 250 0 
0 250 0 
255 0 0 
255 0 0 
255 0 0 
255 0 0 
255 0 0 
255 0 0 
255 0 0 
255 0 0 
255 0 0 
255 0 0 
0 250 0 
0 250 0 
0 250 0 
0 250 0 
0 250 0 
255 0 0 
255 0 0 
255 0 0 
255 0 0 
255 0 0 
255 0 0 
255 0 0 
255 0 0 
255 0 0 
255 0 0 
0 250 0 
0 250 0 
0 250 0 
0 250 0 
0 250 0 
0 250 0 
0 250 0 
0 250 0 
0 250 0 
0 250 0 
0 250 0 
0 250 0 
0 250 0 
0 250 0 
0 250 0 
0 250 0 
0 250 0 
0 250 0 
0 250 0 
0 250 0 
255 0 0 
255 0 0 
255 0 0 
255 0 0 
255 0 0 
255 0 0 
255 0 0 
255 0 0 
255 0 0 
255 0 0 
0 250 0 
0 250 0 
0 250 0 
0 250 0 
0 250 0 
255 0 0 
255 0 0 
255 0 0 
255 0 0 
255 0 0 
255 0 0 
255 0 0 
255 0 0 
255 0 0 
255 0 0 
0 250 0 
0 250 0 
0 250 0 
0 250 0 
0 250 0 
0 250 0 
0 250 0 
0 250 0 
0 250 0 
0 250 0 
0 250 0 
0 250 0 
0 250 0 
0 250 0 
0 250 0 
0 250 0 
0 250 0 
0 250 0 
0 250 0 
0 250 0 
255 0 0 
255 0 0 
255 0 0 
255 0 0 
255 0 0 
255 0 0 
255 0 0 
255 0 0 
255 0 0 
255 0 0 
0 250 0 
0 250 0 
0 250 0 
0 250 0 
0 250 0 
255 0 0 
255 0 0 
255 0 0 
255 0 0 
255 0 0 
255 0 0 
255 0 0 
255 0 0 
255 0 0 
255 0 0 
0 250 0 
0 250 0 
0 250 0 
0 250 0 
0 250 0 
0 250 0 
0 250 0 
0 250 0 
0 250 0 
0 250 0 
0 250 0 
0 250 0 
0 250 0 
0 250 0 
0 250 0 
0 250 0 
0 250 0 
0 250 0 
0 250 0 
0 250 0 
255 0 0 
255 0 0 
255 0 0 
255 0 0 
255 0 0 
255 0 0 
255 0 0 
255 0 0 
255 0 0 
255 0 0 
0 250 0 
0 250 0 
0 250 0 
0 250 0 
0 250 0 
255 0 0 
255 0 0 
255 0 0 
255 0 0 
255 0 0 
255 0 0 
255 0 0 
255 0 0 
255 0 0 
255 0 0 
0 250 0 
0 250 0 
0 250 0 
0 250 0 
0 250 0 
0 250 0 
0 250 0 
0 250 0 
0 250 0 
0 250 0 
0 250 0 
0 250 0 
0 250 0 
0 250 0 
0 250 0 
0 250 0 
0 250 0 
0 250 0 
0 250 0 
0 250 0 
255 0 0 
255 0 0 
255 0 0 
255 0 0 
255 0 0 
255 0 0 
255 0 0 
255 0 0 
255 0 0 
255 0 0 
0 250 0 
0 250 0 
0 250 0 
0 250 0 
0 250 0 
255 0 0 
255 0 0 
255 0 0 
255 0 0 
255 0 0 
255 0 0 
255 0 0 
255 0 0 
255 0 0 
255 0 0 
0 250 0 
0 250 0 
0 250 0 
0 250 0 
0 250 0 
0 250 0 
0 250 0 
0 250 0 
0 250 0 
0 250 0 
0 250 0 
0 250 0 
0 250 0 
0 250 0 
0 250 0 
0 250 0 
0 250 0 
0 250 0 
0 250 0 
0 250 0 
0 250 0 
0 250 0 
0 250 0 
0 250 0 
0 250 0 
0 250 0 
0 250 0 
0 250 0 
0 250 0 
0 250 0 
0 250 0 
0 250 0 
0 250 0 
0 250 0 
0 250 0 
0 250 0 
0 250 0 
0 250 0 
0 250 0 
0 250 0 
0 250 0 
0 250 0 
0 250 0 
0 250 0 
0 250 0 
0 250 0 
0 250 0 
0 250 0 
0 250 0 
0 250 0 
0 250 0 
0 250 0 
0 250 0 
0 250 0 
0 250 0 
0 250 0 
0 250 0 
0 250 0 
0 250 0 
0 250 0 
0 250 0 
0 250 0 
0 250 0 
0 250 0 
0 250 0 
0 250 0 
0 250 0 
0 250 0 
0 250 0 
0 250 0 
0 250 0 
0 250 0 
0 250 0 
0 250 0 
0 250 0 
0 250 0 
0 250 0 
0 250 0 
0 250 0 
0 250 0 
0 250 0 
0 250 0 
0 250 0 
0 250 0 
0 250 0 
0 250 0 
0 250 0 
0 250 0 
0 250 0 
0 250 0 
0 250 0 
0 250 0 
0 250 0 
0 250 0 
0 250 0 
0 250 0 
0 250 0 
0 250 0 
0 250 0 
0 250 0 
0 250 0 
0 250 0 
0 250 0 
0 250 0 
0 250 0 
0 250 0 
0 250 0 
0 250 0 
0 250 0 
0 250 0 
0 250 0 
0 250 0 
0 250 0 
0 250 0 
0 250 0 
0 250 0 
0 250 0 
0 250 0 
0 250 0 
0 250 0 
0 250 0 
0 250 0 
0 250 0 
0 250 0 
0 250 0 
0 250 0 
0 250 0 
0 250 0 
0 250 0 
0 250 0 
0 250 0 
0 250 0 
0 250 0 
0 250 0 
0 250 0 
0 250 0 
0 250 0 
0 250 0 
0 250 0 
0 250 0 
0 250 0 
0 250 0 
0 250 0 
0 250 0 
0 250 0 
0 250 0 
0 250 0 
0 250 0 
0 250 0 
0 250 0 
0 250 0 
0 250 0 
0 250 0 
0 250 0 
0 250 0 
0 250 0 
0 250 0 
0 250 0 
0 250 0 
0 250 0 
0 250 0 
0 250 0 
0 250 0 
0 250 0 
0 250 0 
0 250 0 
0 250 0 
0 250 0 
0 250 0 
0 250 0 
0 250 0 
0 250 0 
0 250 0 
0 250 0 
0 250 0 
0 250 0 
0 250 0 
0 250 0 
0 250 0 
0 250 0 
0 250 0 
0 250 0 
0 250 0 
0 250 0 
0 250 0 
0 250 0 
0 250 0 
0 250 0 
0 250 0 
0 250 0 
0 250 0 
0 250 0 
0 250 0 
0 250 0 
0 250 0 
0 250 0 
0 250 0 
0 250 0 
0 250 0 
0 250 0 
0 250 0 
0 250 0 
0 250 0 
0 250 0 
0 250 0 
0 250 0 
0 250 0 
0 250 0 
0 250 0 
0 250 0 
0 250 0 
0 250 0 
0 250 0 
0 250 0 
0 250 0 
0 250 0 
0 250 0 
0 250 0 
0 250 0 
0 250 0 
0 250 0 
0 250 0 
0 250 0 
0 250 0 
0 250 0 
0 250 0 
0 250 0 
0 250 0 
0 250 0 
0 250 0 
0 250 0 
0 250 0 
0 250 0 
0 250 0 
0 250 0 
0 250 0 
0 250 0 
0 250 0 
0 250 0 
0 250 0 
0 250 0 
0 250 0 
0 250 0 
0 250 0 
0 250 0 
0 250 0 
0 250 0 
0 250 0 
0 250 0 
0 250 0 
0 250 0 
0 250 0 
0 250 0 
0 250 0 
0 250 0 
0 250 0 
0 250 0 
0 250 0 
0 250 0 
0 250 0 
0 250 0 
0 250 0 
0 250 0 
0 250 0 
0 250 0 
0 250 0 
0 250 0 
0 250 0 
0 250 0 
0 250 0 
0 250 0 
0 250 0 
0 250 0 
0 250 0 
0 250 0 
0 250 0 
0 250 0 
0 250 0 
0 250 0 
0 250 0 
0 250 0 
0 250 0 
0 250 0 
0 250 0 
0 250 0 
0 250 0 
0 250 0 
0 250 0 
0 250 0 
0 250 0 
0 250 0 
0 250 0 
0 250 0 
0 250 0 
0 250 0 
0 250 0 
0 250 0 
0 250 0 
0 250 0 
0 250 0 
0 250 0 
0 250 0 
0 250 0 
0 250 0 
0 250 0 
0 250 0 
0 250 0 
0 250 0 
0 250 0 
0 250 0 
0 250 0 
0 250 0 
0 250 0 
0 250 0 
0 250 0 
0 250 0 
0 250 0 
0 250 0 
0 250 0 
0 250 0 
0 250 0 
0 250 0 
0 250 0 
0 250 0 
0 250 0 
0 250 0 
0 250 0 
0 250 0 
0 250 0 
0 250 0 
0 250 0 
0 250 0 
0 250 0 
0 250 0 
0 250 0 
0 250 0 
0 250 0 
0 250 0 
0 250 0 
0 250 0 
0 250 0 
0 250 0 
0 250 0 
0 250 0 
0 250 0 
0 250 0 
0 250 0 
0 250 0 
0 250 0 
0 250 0 
0 250 0 
0 250 0 
0 250 0 
0 250 0 
0 250 0 
0 250 0 
0 250 0 
0 250 0 
0 250 0 
0 250 0 
0 250 0 
0 250 0 
0 250 0 
0 250 0 
0 250 0 
0 250 0 
0 250 0 
0 250 0 
0 250 0 
0 250 0 
0 250 0 
0 250 0 
0 250 0 
0 250 0 
0 250 0 
0 250 0 
0 250 0 
0 250 0 
0 250 0 
0 250 0 
0 250 0 
0 250 0 
0 250 0 
0 250 0 
0 250 0 
0 250 0 
0 250 0 
0 250 0 
0 250 0 
0 250 0 
0 250 0 
0 250 0 
0 250 0 
0 250 0 
0 250 0 
0 250 0 
0 250 0 
0 250 0 
0 250 0 
0 250 0 
0 250 0 
0 250 0 
0 250 0 
0 250 0 
0 250 0 
0 250 0 
0 250 0 
0 250 0 
0 250 0 
0 250 0 
0 250 0 
0 250 0 
0 250 0 
0 250 0 
0 250 0 
0 250 0 
0 250 0 
0 250 0 
0 250 0 
0 250 0 
0 250 0 
0 250 0 
0 250 0 
0 250 0 
0 250 0 
0 250 0 
0 250 0 
0 250 0 
0 250 0 
0 250 0 
0 250 0 
0 250 0 
0 250 0 
0 250 0 
0 250 0 
0 250 0 
0 250 0 
0 250 0 
0 250 0 
0 250 0 
0 250 0 
0 250 0 
0 250 0 
0 250 0 
0 250 0 
0 250 0 
0 250 0 
0 250 0 
0 250 0 
0 250 0 
0 250 0 
0 250 0 
0 250 0 
0 250 0 
0 250 0 
0 250 0 
0 250 0 
0 250 0 
0 250 0 
0 250 0 
